<svg width="136" height="24" viewBox="0 0 136 24" fill="none" xmlns="http://www.w3.org/2000/svg">
<path d="M14.7549 16.3496H16.5566C16.4102 17.7852 16.0146 19.0254 15.3701 20.0703C14.7256 21.1055 13.8467 21.9014 12.7334 22.458C11.6201 23.0146 10.2773 23.293 8.70508 23.293C7.49414 23.293 6.39551 23.0635 5.40918 22.6045C4.43262 22.1455 3.59277 21.4961 2.88965 20.6562C2.18652 19.8066 1.64453 18.791 1.26367 17.6094C0.882812 16.4277 0.692383 15.1143 0.692383 13.6689V11.0029C0.692383 9.55762 0.882812 8.24902 1.26367 7.07715C1.64453 5.89551 2.19141 4.87988 2.9043 4.03027C3.61719 3.18066 4.47168 2.52637 5.46777 2.06738C6.46387 1.6084 7.58691 1.37891 8.83691 1.37891C10.3506 1.37891 11.6592 1.65723 12.7627 2.21387C13.8662 2.76074 14.7354 3.55176 15.3701 4.58691C16.0146 5.62207 16.4102 6.87207 16.5566 8.33691H14.7549C14.6182 7.18457 14.3154 6.20801 13.8467 5.40723C13.3779 4.60645 12.7285 3.99609 11.8984 3.57617C11.0781 3.14648 10.0576 2.93164 8.83691 2.93164C7.84082 2.93164 6.95215 3.12207 6.1709 3.50293C5.38965 3.88379 4.72559 4.43066 4.17871 5.14355C3.63184 5.84668 3.21191 6.69141 2.91895 7.67773C2.63574 8.66406 2.49414 9.7627 2.49414 10.9736V13.6689C2.49414 14.8408 2.63086 15.9199 2.9043 16.9062C3.17773 17.8926 3.57812 18.7471 4.10547 19.4697C4.64258 20.1924 5.29688 20.7539 6.06836 21.1543C6.83984 21.5547 7.71875 21.7549 8.70508 21.7549C9.96484 21.7549 11.0146 21.5547 11.8545 21.1543C12.7041 20.7441 13.3633 20.1387 13.832 19.3379C14.3008 18.5371 14.6084 17.541 14.7549 16.3496ZM22.2842 0.5V23H20.541V0.5H22.2842ZM21.8887 14.0938L21.1123 13.6543C21.1709 12.7168 21.3613 11.8379 21.6836 11.0176C22.0059 10.1973 22.4404 9.47461 22.9873 8.84961C23.5439 8.22461 24.1934 7.73633 24.9355 7.38477C25.6875 7.0332 26.5176 6.85742 27.4258 6.85742C28.2168 6.85742 28.9248 6.96484 29.5498 7.17969C30.1748 7.39453 30.707 7.73633 31.1465 8.20508C31.5859 8.67383 31.918 9.27441 32.1426 10.0068C32.377 10.7393 32.4941 11.6328 32.4941 12.6875V23H30.7363V12.6729C30.7363 11.5791 30.585 10.7246 30.2822 10.1094C29.9795 9.48438 29.5498 9.04004 28.9932 8.77637C28.4365 8.5127 27.7773 8.38086 27.0156 8.38086C26.1758 8.38086 25.4385 8.56641 24.8037 8.9375C24.1787 9.29883 23.6514 9.77246 23.2217 10.3584C22.8018 10.9346 22.4795 11.5547 22.2549 12.2188C22.0303 12.873 21.9082 13.498 21.8887 14.0938ZM38.749 9.77246V23H37.0059V7.15039H38.7051L38.749 9.77246ZM44.3594 7.0332L44.3154 8.64453C44.1201 8.61523 43.9297 8.59082 43.7441 8.57129C43.5586 8.55176 43.3584 8.54199 43.1436 8.54199C42.3818 8.54199 41.7129 8.68359 41.1367 8.9668C40.5703 9.24023 40.0918 9.62598 39.7012 10.124C39.3105 10.6123 39.0127 11.1885 38.8076 11.8525C38.6025 12.5068 38.4854 13.21 38.4561 13.9619L37.8115 14.2109C37.8115 13.1758 37.9189 12.2139 38.1338 11.3252C38.3486 10.4365 38.6758 9.66016 39.1152 8.99609C39.5645 8.32227 40.126 7.7998 40.7998 7.42871C41.4834 7.04785 42.2842 6.85742 43.2021 6.85742C43.4268 6.85742 43.6465 6.87695 43.8613 6.91602C44.0859 6.94531 44.252 6.98438 44.3594 7.0332ZM45.8535 15.3242V14.8408C45.8535 13.6885 46.0195 12.624 46.3516 11.6475C46.6836 10.6709 47.1572 9.82617 47.7725 9.11328C48.3975 8.40039 49.1445 7.84863 50.0137 7.45801C50.8828 7.05762 51.8496 6.85742 52.9141 6.85742C53.9883 6.85742 54.96 7.05762 55.8291 7.45801C56.6982 7.84863 57.4453 8.40039 58.0703 9.11328C58.6953 9.82617 59.1738 10.6709 59.5059 11.6475C59.8379 12.624 60.0039 13.6885 60.0039 14.8408V15.3242C60.0039 16.4766 59.8379 17.541 59.5059 18.5176C59.1738 19.4844 58.6953 20.3242 58.0703 21.0371C57.4551 21.75 56.7129 22.3066 55.8438 22.707C54.9746 23.0977 54.0078 23.293 52.9434 23.293C51.8691 23.293 50.8975 23.0977 50.0283 22.707C49.1592 22.3066 48.4121 21.75 47.7871 21.0371C47.1621 20.3242 46.6836 19.4844 46.3516 18.5176C46.0195 17.541 45.8535 16.4766 45.8535 15.3242ZM47.5967 14.8408V15.3242C47.5967 16.1934 47.7139 17.0186 47.9482 17.7998C48.1826 18.5713 48.5244 19.2598 48.9736 19.8652C49.4229 20.4609 49.9795 20.9297 50.6436 21.2715C51.3076 21.6133 52.0742 21.7842 52.9434 21.7842C53.8027 21.7842 54.5596 21.6133 55.2139 21.2715C55.8779 20.9297 56.4346 20.4609 56.8838 19.8652C57.333 19.2598 57.6699 18.5713 57.8945 17.7998C58.1289 17.0186 58.2461 16.1934 58.2461 15.3242V14.8408C58.2461 13.9814 58.1289 13.166 57.8945 12.3945C57.6699 11.623 57.3281 10.9346 56.8691 10.3291C56.4199 9.72363 55.8633 9.24512 55.1992 8.89355C54.5352 8.54199 53.7734 8.36621 52.9141 8.36621C52.0547 8.36621 51.293 8.54199 50.6289 8.89355C49.9746 9.24512 49.418 9.72363 48.959 10.3291C48.5098 10.9346 48.168 11.623 47.9336 12.3945C47.709 13.166 47.5967 13.9814 47.5967 14.8408ZM65.3799 10.5342V23H63.6367V7.15039H65.3066L65.3799 10.5342ZM64.9844 14.0938L64.208 13.6543C64.2666 12.7168 64.457 11.8379 64.7793 11.0176C65.1016 10.1973 65.5361 9.47461 66.083 8.84961C66.6396 8.22461 67.2891 7.73633 68.0312 7.38477C68.7832 7.0332 69.6133 6.85742 70.5215 6.85742C71.3125 6.85742 72.0205 6.96484 72.6455 7.17969C73.2705 7.39453 73.8027 7.73633 74.2422 8.20508C74.6816 8.67383 75.0137 9.27441 75.2383 10.0068C75.4727 10.7393 75.5898 11.6328 75.5898 12.6875V23H73.832V12.6729C73.832 11.5791 73.6807 10.7246 73.3779 10.1094C73.0752 9.48438 72.6455 9.04004 72.0889 8.77637C71.5322 8.5127 70.873 8.38086 70.1113 8.38086C69.2715 8.38086 68.5342 8.56641 67.8994 8.9375C67.2744 9.29883 66.7471 9.77246 66.3174 10.3584C65.8975 10.9346 65.5752 11.5547 65.3506 12.2188C65.126 12.873 65.0039 13.498 64.9844 14.0938ZM79.1641 15.3242V14.8408C79.1641 13.6885 79.3301 12.624 79.6621 11.6475C79.9941 10.6709 80.4678 9.82617 81.083 9.11328C81.708 8.40039 82.4551 7.84863 83.3242 7.45801C84.1934 7.05762 85.1602 6.85742 86.2246 6.85742C87.2988 6.85742 88.2705 7.05762 89.1396 7.45801C90.0088 7.84863 90.7559 8.40039 91.3809 9.11328C92.0059 9.82617 92.4844 10.6709 92.8164 11.6475C93.1484 12.624 93.3145 13.6885 93.3145 14.8408V15.3242C93.3145 16.4766 93.1484 17.541 92.8164 18.5176C92.4844 19.4844 92.0059 20.3242 91.3809 21.0371C90.7656 21.75 90.0234 22.3066 89.1543 22.707C88.2852 23.0977 87.3184 23.293 86.2539 23.293C85.1797 23.293 84.208 23.0977 83.3389 22.707C82.4697 22.3066 81.7227 21.75 81.0977 21.0371C80.4727 20.3242 79.9941 19.4844 79.6621 18.5176C79.3301 17.541 79.1641 16.4766 79.1641 15.3242ZM80.9072 14.8408V15.3242C80.9072 16.1934 81.0244 17.0186 81.2588 17.7998C81.4932 18.5713 81.835 19.2598 82.2842 19.8652C82.7334 20.4609 83.29 20.9297 83.9541 21.2715C84.6182 21.6133 85.3848 21.7842 86.2539 21.7842C87.1133 21.7842 87.8701 21.6133 88.5244 21.2715C89.1885 20.9297 89.7451 20.4609 90.1943 19.8652C90.6436 19.2598 90.9805 18.5713 91.2051 17.7998C91.4395 17.0186 91.5566 16.1934 91.5566 15.3242V14.8408C91.5566 13.9814 91.4395 13.166 91.2051 12.3945C90.9805 11.623 90.6387 10.9346 90.1797 10.3291C89.7305 9.72363 89.1738 9.24512 88.5098 8.89355C87.8457 8.54199 87.084 8.36621 86.2246 8.36621C85.3652 8.36621 84.6035 8.54199 83.9395 8.89355C83.2852 9.24512 82.7285 9.72363 82.2695 10.3291C81.8203 10.9346 81.4785 11.623 81.2441 12.3945C81.0195 13.166 80.9072 13.9814 80.9072 14.8408ZM106.439 18.957C106.439 18.5273 106.332 18.1025 106.117 17.6826C105.902 17.2627 105.487 16.877 104.872 16.5254C104.267 16.1738 103.373 15.876 102.191 15.6318C101.312 15.4365 100.526 15.2168 99.833 14.9727C99.1494 14.7285 98.5732 14.4355 98.1045 14.0938C97.6357 13.752 97.2793 13.3418 97.0352 12.8633C96.791 12.3848 96.6689 11.8184 96.6689 11.1641C96.6689 10.5781 96.7959 10.0264 97.0498 9.50879C97.3135 8.98145 97.6846 8.52246 98.1631 8.13184C98.6514 7.73145 99.2373 7.41895 99.9209 7.19434C100.614 6.96973 101.391 6.85742 102.25 6.85742C103.471 6.85742 104.516 7.06738 105.385 7.4873C106.264 7.89746 106.933 8.45898 107.392 9.17188C107.86 9.88477 108.095 10.6904 108.095 11.5889H106.352C106.352 11.042 106.19 10.5244 105.868 10.0361C105.556 9.54785 105.092 9.14746 104.477 8.83496C103.871 8.52246 103.129 8.36621 102.25 8.36621C101.342 8.36621 100.604 8.50293 100.038 8.77637C99.4717 9.0498 99.0566 9.39648 98.793 9.81641C98.5391 10.2363 98.4121 10.6709 98.4121 11.1201C98.4121 11.4717 98.4658 11.7939 98.5732 12.0869C98.6904 12.3701 98.8955 12.6338 99.1885 12.8779C99.4912 13.1221 99.9209 13.3516 100.478 13.5664C101.034 13.7812 101.757 13.9912 102.646 14.1963C103.925 14.4795 104.97 14.8262 105.78 15.2363C106.601 15.6367 107.206 16.1348 107.597 16.7305C107.987 17.3164 108.183 18.0293 108.183 18.8691C108.183 19.5234 108.046 20.124 107.772 20.6709C107.499 21.208 107.104 21.6719 106.586 22.0625C106.078 22.4531 105.463 22.7559 104.74 22.9707C104.027 23.1855 103.227 23.293 102.338 23.293C101 23.293 99.8672 23.0732 98.9395 22.6338C98.0215 22.1846 97.3232 21.5986 96.8447 20.876C96.376 20.1436 96.1416 19.3672 96.1416 18.5469H97.8848C97.9434 19.3672 98.2021 20.0166 98.6611 20.4951C99.1201 20.9639 99.6816 21.2959 100.346 21.4912C101.02 21.6865 101.684 21.7842 102.338 21.7842C103.236 21.7842 103.988 21.6523 104.594 21.3887C105.199 21.125 105.658 20.7783 105.971 20.3486C106.283 19.9189 106.439 19.4551 106.439 18.957ZM120.326 4.51367L113.954 23H110.102L118.129 1.67188H120.59L120.326 4.51367ZM125.658 23L119.271 4.51367L118.993 1.67188H121.469L129.525 23H125.658ZM125.351 15.0898V18.0049H113.749V15.0898H125.351ZM135.839 1.67188V23H132.162V1.67188H135.839Z" fill="white"/>
</svg>
