<svg width="150" height="170" viewBox="0 0 150 170" fill="none" xmlns="http://www.w3.org/2000/svg">
<path d="M114.122 31.5523C122.37 36.6898 129.526 43.4017 135.181 51.3048C140.836 59.2079 144.879 68.1474 147.079 77.613C149.279 87.0785 149.593 96.8846 148.003 106.472C146.413 116.058 142.951 125.238 137.813 133.487C132.676 141.736 125.964 148.892 118.061 154.547C110.158 160.202 101.218 164.244 91.7525 166.444C82.287 168.644 72.4808 168.958 62.8939 167.369C53.307 165.779 44.1272 162.316 35.8784 157.179C27.6297 152.041 20.4736 145.329 14.8188 137.426C9.16397 129.523 5.12117 120.584 2.9212 111.118C0.721229 101.652 0.407173 91.8463 1.99696 82.2594C3.58676 72.6725 7.04926 63.4926 12.1868 55.2439C17.3243 46.9951 24.0362 39.8391 31.9393 34.1843C39.8425 28.5294 48.782 24.4866 58.2475 22.2867C67.713 20.0867 77.5192 19.7727 87.1061 21.3624C96.693 22.9522 105.873 26.4147 114.122 31.5523L114.122 31.5523Z" stroke="url(#paint0_linear_321_78998)" stroke-width="2"/>
<circle cx="75" cy="94.3654" r="66.3462" fill="#1C9AB7"/>
<mask id="mask0_321_78998" style="mask-type:alpha" maskUnits="userSpaceOnUse" x="8" y="28" width="134" height="133">
<circle cx="75" cy="94.3654" r="66.3462" fill="#1C9AB7"/>
</mask>
<g mask="url(#mask0_321_78998)">
<path d="M90.8286 77.3225C90.8286 77.3225 108.525 81.0604 112.274 83.5508C118.138 87.4461 136.501 131.534 138.386 156.533C140.27 181.531 119.891 207.213 119.891 207.213L106.536 193.859C106.536 193.859 120.063 164.923 118.864 154.479C117.664 144.034 108.938 126.57 108.938 126.57L90.8286 77.3225Z" fill="#F5F7FD"/>
<path d="M90.0971 77.7722C90.0971 77.7722 90.9242 126.001 89.2413 138.726C86.5023 159.443 86.3306 195.742 87.1846 215.945C88.0386 236.149 86.2456 296.665 86.2456 296.665C86.2456 296.665 119.557 299.639 134.623 292.448L118.691 187.694L110.13 118.865L109.103 90.9559L90.0971 77.7722Z" fill="#F5F7FD"/>
<path d="M69.8957 131.71C69.724 112.705 62.876 83.7682 62.876 80.6866C62.876 80.6866 63.1541 78.054 65.2082 77.2626L67.67 75.2059C67.67 75.2059 64.6296 74.4351 62.961 75.0342C61.2923 75.6333 51.0123 81.1051 49.4134 81.7552C49.3705 81.7722 46.3104 82.5538 46.2675 82.5896C43.9237 83.2692 38.13 85.5504 36.6044 86.8595C34.7748 88.4289 10.8255 140.438 11.5105 155.505C12.1955 170.572 28.4607 200.878 28.4607 200.878L36.38 194.629C33.3664 229.01 25.3335 294.667 25.3335 294.667C37.4897 299.804 71.6028 297.33 71.6028 297.33C71.6028 297.33 70.0665 150.711 69.8957 131.71ZM33.9396 153.797C34.3867 150.35 41.2016 129.939 43.5284 124.006C43.0974 132.917 41.6354 154.377 39.5938 174.151C39.4803 175.25 39.034 175.553 38.8874 177.102C35.2693 167.529 33.598 156.43 33.9396 153.797Z" fill="#F5F7FD"/>
<path d="M69.0381 142.721C68.9006 142.721 68.7679 142.671 68.6642 142.581C68.5606 142.49 68.493 142.366 68.4738 142.229C68.1716 140.065 64.1073 130.236 61.1411 123.058C58.8233 117.454 57.3952 113.977 57.2244 113.16C56.8068 111.156 61.1242 107.516 63.2301 105.878C60.4088 103.936 55.2866 100.197 55.2866 98.6606C55.2866 97.5241 57.2539 90.0376 59.3732 82.1174C59.6871 80.945 59.8955 80.1689 59.9214 80.0535C59.9547 79.9068 60.0438 79.7789 60.1699 79.6969C60.2959 79.6149 60.449 79.5853 60.5966 79.6144C60.6698 79.6288 60.7394 79.6574 60.8016 79.6987C60.8637 79.74 60.9171 79.7932 60.9586 79.8552C61.0001 79.9171 61.029 79.9867 61.0436 80.0599C61.0582 80.133 61.0583 80.2084 61.0437 80.2815C61.0258 80.3709 60.8112 81.1758 60.4794 82.4134C59.4788 86.1486 56.4321 97.5169 56.4321 98.6606C56.5591 99.5075 60.7343 102.811 64.5285 105.38C64.6038 105.431 64.6658 105.499 64.7094 105.579C64.753 105.659 64.7769 105.748 64.7791 105.839C64.7813 105.93 64.7617 106.02 64.722 106.102C64.6823 106.183 64.6236 106.254 64.5509 106.309C61.3969 108.675 58.1276 111.877 58.3458 112.926C58.5032 113.681 60.2988 118.023 62.2008 122.622C65.3592 130.259 69.2885 139.764 69.6104 142.071C69.6313 142.221 69.5918 142.373 69.5006 142.494C69.4094 142.615 69.2739 142.695 69.1239 142.716C69.0955 142.72 69.0668 142.721 69.0381 142.721Z" fill="#DADAF7"/>
<path d="M89.5865 142.207C89.5028 142.207 89.42 142.189 89.3441 142.154C89.2682 142.118 89.201 142.067 89.1473 142.003C89.0936 141.938 89.0547 141.863 89.0334 141.782C89.0121 141.701 89.0089 141.617 89.024 141.534C89.1823 140.667 91.315 136.298 94.7811 129.24C97.994 122.699 102.395 113.741 102.455 112.697C102.455 111.434 100.315 109.873 99.567 109.426C99.4365 109.349 99.3422 109.223 99.3047 109.076C99.2672 108.929 99.2897 108.773 99.3671 108.642C99.4446 108.512 99.5706 108.418 99.7176 108.38C99.8646 108.343 100.02 108.365 100.151 108.442C100.503 108.653 103.596 110.554 103.596 112.7C103.596 113.802 100.653 119.874 95.8058 129.743C93.2126 135.012 90.2849 140.983 90.1471 141.737C90.1235 141.869 90.0544 141.988 89.9519 142.074C89.8495 142.16 89.7201 142.207 89.5865 142.207Z" fill="#DADAF7"/>
<path d="M78.1137 187.665C78.0387 187.665 77.9646 187.65 77.8954 187.621C77.8262 187.592 77.7634 187.55 77.7105 187.497C77.6576 187.444 77.6157 187.381 77.5871 187.312C77.5586 187.243 77.5439 187.169 77.5441 187.094C77.5503 184.643 77.7184 127.009 78.0591 122.588C78.3945 118.228 76.7902 95.8884 76.7732 95.663C76.767 95.5689 76.7839 95.4746 76.8224 95.3885C76.9932 95.0066 78.5528 91.6846 80.4825 92.3418C81.6951 92.7577 83.5354 94.7697 84.4985 95.8982L87.986 87.4844C88.0147 87.4151 88.0568 87.3523 88.1098 87.2993C88.1628 87.2463 88.2257 87.2043 88.295 87.1757C88.3642 87.147 88.4384 87.1323 88.5134 87.1323C88.5883 87.1324 88.6625 87.1472 88.7318 87.1759C88.801 87.2046 88.8639 87.2466 88.9169 87.2997C88.9698 87.3527 89.0118 87.4156 89.0405 87.4849C89.0691 87.5541 89.0839 87.6283 89.0838 87.7033C89.0838 87.7782 89.069 87.8524 89.0403 87.9217L85.1942 97.2091C85.1562 97.3008 85.095 97.381 85.0166 97.4418C84.9382 97.5025 84.8453 97.5418 84.747 97.5557C84.6488 97.5696 84.5486 97.5577 84.4564 97.5211C84.3642 97.4844 84.2832 97.4244 84.2213 97.3468C83.1482 96.0055 81.0915 93.7565 80.1159 93.4221C79.4899 93.203 78.4669 94.5846 77.9268 95.7274C78.0779 97.8467 79.5319 118.371 79.1993 122.675C78.863 127.057 78.6913 186.496 78.6887 187.095C78.6886 187.171 78.6736 187.245 78.6446 187.315C78.6155 187.384 78.5731 187.447 78.5197 187.5C78.4662 187.553 78.4029 187.595 78.3332 187.623C78.2635 187.651 78.1889 187.666 78.1137 187.665Z" fill="#CA4563"/>
<path d="M67.1143 97.948C67.0676 97.9476 67.0211 97.9416 66.9757 97.9301C66.8292 97.8931 66.7033 97.7997 66.6254 97.6702C66.5475 97.5407 66.5239 97.3856 66.5599 97.2388C67.2834 94.3424 68.4655 90.9569 70.0045 91.2475C71.4004 91.5157 75.4852 94.7797 76.2901 95.4307C76.3526 95.4762 76.4053 95.5339 76.4449 95.6003C76.4844 95.6667 76.5101 95.7405 76.5203 95.8172C76.5304 95.8939 76.5249 95.9718 76.504 96.0463C76.4831 96.1207 76.4473 96.1902 76.3988 96.2504C76.3502 96.3106 76.29 96.3603 76.2216 96.3965C76.1533 96.4326 76.0783 96.4545 76.0012 96.4609C75.9241 96.4672 75.8465 96.4577 75.7732 96.4331C75.6999 96.4085 75.6324 96.3693 75.5747 96.3178C73.7961 94.8798 70.6564 92.5352 69.7899 92.368C69.3267 92.5227 68.3162 94.9263 67.6697 97.5107C67.6397 97.6354 67.5686 97.7463 67.4679 97.8257C67.3671 97.905 67.2426 97.9481 67.1143 97.948Z" fill="#CA4563"/>
<path d="M108.675 115.325C108.54 115.325 108.41 115.277 108.307 115.19C108.204 115.103 108.135 114.982 108.113 114.849C107.456 110.825 107.067 106.762 106.951 102.687C106.951 97.5571 109.177 85.6227 109.276 85.1174C109.306 84.9708 109.392 84.8417 109.516 84.7582C109.641 84.6747 109.793 84.6433 109.94 84.6709C110.087 84.6985 110.217 84.7828 110.303 84.9056C110.388 85.0285 110.422 85.18 110.397 85.3276C110.375 85.451 108.095 97.6626 108.095 102.687C108.212 106.7 108.595 110.701 109.243 114.664C109.256 114.738 109.254 114.813 109.237 114.886C109.22 114.96 109.189 115.029 109.145 115.09C109.101 115.151 109.046 115.203 108.983 115.242C108.919 115.282 108.848 115.309 108.774 115.321C108.741 115.325 108.708 115.327 108.675 115.325Z" fill="#DADAF7"/>
<path d="M44.2132 114.47H44.1811C44.0301 114.461 43.8889 114.393 43.7883 114.28C43.6877 114.167 43.636 114.019 43.6445 113.868C43.6445 113.792 44.0746 106.192 44.2857 100.865C44.4869 95.7841 40.3207 87.3622 40.2786 87.2728C40.2171 87.138 40.2104 86.9846 40.2598 86.845C40.3092 86.7053 40.4109 86.5903 40.5435 86.5242C40.676 86.4581 40.8291 86.446 40.9704 86.4906C41.1117 86.5352 41.2301 86.6328 41.3007 86.7631C41.4796 87.1208 45.6387 95.539 45.4258 100.91C45.2148 106.246 44.7882 113.856 44.7838 113.931C44.7758 114.077 44.7121 114.214 44.606 114.314C44.4998 114.414 44.3593 114.47 44.2132 114.47Z" fill="#DADAF7"/>
<path d="M56.448 128.588C59.9115 128.588 62.7192 125.78 62.7192 122.317C62.7192 118.853 59.9115 116.045 56.448 116.045C52.9845 116.045 50.1768 118.853 50.1768 122.317C50.1768 125.78 52.9845 128.588 56.448 128.588Z" fill="#ACB0CA"/>
<path d="M56.2955 121.362C56.0801 121.362 55.8727 121.28 55.7146 121.134C55.5565 120.988 55.4593 120.787 55.4424 120.572C55.3038 118.795 52.2286 77.008 67.9849 74.0105C68.0954 73.9895 68.2089 73.9903 68.319 74.0131C68.4291 74.0359 68.5336 74.0802 68.6266 74.1434C68.7196 74.2066 68.7993 74.2875 68.861 74.3814C68.9228 74.4754 68.9654 74.5806 68.9865 74.691C69.0075 74.8015 69.0067 74.915 68.9839 75.0251C68.9611 75.1352 68.9168 75.2398 68.8536 75.3328C68.7904 75.4258 68.7095 75.5054 68.6156 75.5671C68.5216 75.6289 68.4164 75.6715 68.306 75.6926C54.0394 78.4066 57.1156 120.02 57.1504 120.443C57.1679 120.669 57.0949 120.893 56.9473 121.065C56.7997 121.238 56.5897 121.344 56.3635 121.362C56.3409 121.363 56.3182 121.363 56.2955 121.362Z" fill="#0A1136"/>
<path d="M56.314 126.497C58.5927 126.497 60.4399 124.65 60.4399 122.371C60.4399 120.092 58.5927 118.245 56.314 118.245C54.0353 118.245 52.188 120.092 52.188 122.371C52.188 124.65 54.0353 126.497 56.314 126.497Z" fill="#04061F"/>
<path d="M56.316 125.6C58.1167 125.6 59.5764 124.14 59.5764 122.34C59.5764 120.539 58.1167 119.079 56.316 119.079C54.5154 119.079 53.0557 120.539 53.0557 122.34C53.0557 124.14 54.5154 125.6 56.316 125.6Z" fill="#D8DEFF"/>
<path d="M97.713 101.743C97.6786 101.743 97.6443 101.741 97.6101 101.737C97.3847 101.71 97.1792 101.594 97.0388 101.416C96.8983 101.238 96.8343 101.011 96.8608 100.785C96.8751 100.67 98.1842 89.1326 93.9706 81.7051C92.9339 79.7707 91.4029 78.1458 89.5335 76.9961C87.6641 75.8464 85.5233 75.2129 83.3293 75.1602C83.1045 75.1634 82.8869 75.0808 82.7208 74.9294C82.5547 74.7779 82.4525 74.5688 82.435 74.3447C82.4297 74.2324 82.4466 74.1203 82.4847 74.0146C82.5228 73.9089 82.5813 73.8118 82.657 73.7287C82.7327 73.6457 82.824 73.5783 82.9256 73.5306C83.0273 73.4828 83.1375 73.4556 83.2497 73.4504C85.7645 73.4693 88.2274 74.1681 90.3776 75.4727C92.5277 76.7772 94.2849 78.6391 95.4631 80.8609C99.9566 88.782 98.6233 100.494 98.5652 100.989C98.54 101.197 98.4393 101.389 98.2823 101.528C98.1252 101.667 97.9226 101.743 97.713 101.743Z" fill="#0A1136"/>
<path d="M104.467 118.799C104.8 128.084 104.646 136.036 103.736 137.041C102.567 137.971 101.086 138.416 99.5989 138.283C99.3719 138.284 99.1547 138.376 98.9951 138.537C98.8354 138.698 98.7464 138.916 98.7476 139.143C98.7488 139.37 98.8401 139.587 99.0014 139.747C99.1627 139.907 99.3809 139.996 99.6078 139.995H99.6168C101.534 140.129 103.428 139.519 104.906 138.29C106.504 136.793 106.498 126.966 106.184 118.63C105.616 118.722 105.042 118.778 104.467 118.799Z" fill="#ACB0CA"/>
<path d="M88.6321 136.977C89.2 138.87 92.1089 139.749 94.4258 139.921C94.6522 139.938 94.8762 139.865 95.0484 139.717C95.2206 139.569 95.327 139.359 95.3442 139.133C95.3614 138.906 95.288 138.682 95.1401 138.51C94.9922 138.338 94.7819 138.231 94.5555 138.214C92.2511 138.04 90.4814 137.179 90.2775 136.503C90.0584 135.503 90.3669 126.265 90.6826 118.922C90.1184 118.911 89.5554 118.865 88.997 118.783C88.6509 126.299 88.2941 135.849 88.6321 136.977Z" fill="#ACB0CA"/>
<path d="M105.64 108.376C105.364 105.723 103.315 100.64 97.5357 100.39C90.7896 100.116 89.8649 106.775 89.5072 109.288L89.4688 109.561C89.4563 109.643 89.2292 113.764 88.9976 118.783C89.556 118.865 90.119 118.911 90.6832 118.922C90.8844 114.228 91.09 110.305 91.1625 109.81L91.2027 109.529C91.7393 105.744 92.8785 101.898 97.4623 102.102C103.196 102.349 103.911 108.302 103.935 108.523C104.167 111.947 104.349 115.459 104.471 118.799C105.047 118.777 105.62 118.72 106.188 118.628C106.031 114.399 105.789 110.554 105.64 108.376Z" fill="#0A1136"/>
<path d="M93.9868 138.139C94.6266 137.779 95.3389 137.568 96.0713 137.52C96.7178 137.655 97.122 139.891 96.26 140.08C95.4836 140.153 94.7003 140.081 93.9502 139.868L93.9868 138.139Z" fill="#0A1136"/>
<path d="M99.8241 138.261C99.1832 137.918 98.4745 137.72 97.7485 137.682C97.1029 137.817 96.6987 140.053 97.5608 140.241C98.3396 140.31 99.1243 140.228 99.8723 140.001L99.8241 138.261Z" fill="#0A1136"/>
<path d="M84.1056 66.6428C84.1056 66.6428 111.244 69.5535 102.126 101.657C95.6143 124.587 83.6343 126.955 83.6343 126.955C83.6343 126.955 88.3863 125.799 90.8257 114.627C90.8257 114.627 85.9889 122.802 83.9554 123.038C83.9554 123.038 94.036 94.4659 87.9365 79.1209L80.872 74.7544L79.3975 67.504L84.1056 66.6428Z" fill="#D4DAFA"/>
<path d="M79.0118 5.08677C74.2599 5.17619 72.0529 7.2517 71.384 8.62256C70.4415 7.74353 67.4816 7.6389 65.2711 8.5537C60.3421 10.6042 44.6349 22.3517 53.7167 45.9263L71.6907 45.3271V45.2556L84.7868 65.7022C84.7868 65.7022 100.932 61.0361 101.613 38.8628C102.293 16.6894 92.4074 4.8489 79.0118 5.08677Z" fill="#131B4D"/>
<path d="M83.5918 75.1184C83.4201 73.803 83.3235 70.4684 83.2806 68.3983C88.646 65.4241 92.5949 59.5454 93.9819 53.8796C92.1738 50.0787 90.73 46.115 89.6699 42.0417L88.9312 38.4782C85.4607 25.6675 77.9197 24.2886 77.9197 24.2886C77.4064 28.0443 83.7626 37.2549 83.7626 37.2549C75.5437 34.3657 73.6175 24.4782 73.6175 24.4782H73.6104C63.4975 22.9714 56.5404 39.6336 56.5404 39.6336C56.5404 39.6336 56.5261 41.5061 56.7953 44.3202C56.1926 43.9295 55.2116 43.7765 53.6172 44.2889C51.0168 45.1233 49.2194 56.3271 58.9826 55.4928L58.9557 55.2924C60.6879 60.741 63.6728 66.1278 68.7923 68.7426C68.8135 70.7253 68.5818 72.7025 68.1028 74.6266C67.5886 75.9957 65.2127 77.3227 65.2127 77.3227L76.3208 93.9554L86.9729 78.5433C86.9729 78.5433 83.852 77.0875 83.5918 75.1184Z" fill="#E9AD96"/>
<path d="M79.7149 39.3803C79.5518 39.38 79.3921 39.333 79.2548 39.2449C79.1175 39.1567 79.0084 39.031 78.9403 38.8828C78.8722 38.7345 78.848 38.5699 78.8705 38.4083C78.8931 38.2467 78.9614 38.0949 79.0675 37.971C79.2347 37.7787 80.8175 36.0931 84.9962 36.2397C86.1247 36.2494 87.2412 36.4709 88.2879 36.8925C88.4919 36.9862 88.651 37.1564 88.7307 37.3663C88.8105 37.5762 88.8045 37.809 88.7142 38.0145C88.6239 38.2201 88.4564 38.3819 88.2478 38.4651C88.0393 38.5483 87.8064 38.5462 87.5994 38.4592C86.7509 38.1261 85.8479 37.9536 84.9363 37.9504C81.5937 37.8333 80.3597 39.0941 80.3481 39.1075C80.2666 39.1937 80.1685 39.2623 80.0596 39.3092C79.9508 39.3561 79.8335 39.3803 79.7149 39.3803Z" fill="#231213"/>
<path d="M83.9762 45.9037C84.8746 45.9037 85.6028 44.8784 85.6028 43.6136C85.6028 42.3488 84.8746 41.3235 83.9762 41.3235C83.0779 41.3235 82.3496 42.3488 82.3496 43.6136C82.3496 44.8784 83.0779 45.9037 83.9762 45.9037Z" fill="#231213"/>
<path d="M67.4123 45.9037C68.3106 45.9037 69.0389 44.8784 69.0389 43.6136C69.0389 42.3488 68.3106 41.3235 67.4123 41.3235C66.5139 41.3235 65.7856 42.3488 65.7856 43.6136C65.7856 44.8784 66.5139 45.9037 67.4123 45.9037Z" fill="#231213"/>
<path d="M71.358 39.3893C71.2382 39.3894 71.1198 39.3643 71.0104 39.3156C70.901 39.267 70.8031 39.1958 70.7231 39.1068C70.6792 39.0638 69.4327 37.8387 66.1348 37.9505C65.2232 37.9537 64.3202 38.1262 63.4717 38.4593C63.3685 38.5067 63.2569 38.5331 63.1434 38.537C63.0299 38.5408 62.9168 38.522 62.8106 38.4817C62.7045 38.4413 62.6074 38.3803 62.5251 38.302C62.4427 38.2238 62.3768 38.13 62.3311 38.026C62.2854 37.922 62.2609 37.81 62.2589 37.6964C62.257 37.5829 62.2776 37.4701 62.3197 37.3646C62.3618 37.2591 62.4244 37.1631 62.504 37.082C62.5836 37.001 62.6785 36.9366 62.7832 36.8927C63.8299 36.471 64.9464 36.2496 66.0748 36.2399C70.2536 36.103 71.8364 37.7788 72.0036 37.9711C72.112 38.0948 72.1824 38.2472 72.2064 38.41C72.2303 38.5727 72.2068 38.7389 72.1387 38.8887C72.0705 39.0384 71.9606 39.1653 71.8221 39.2541C71.6836 39.3429 71.5225 39.3899 71.358 39.3893Z" fill="#231213"/>
<path d="M76.5691 51.5276C76.2355 51.5747 75.8955 51.5441 75.5757 51.4382C75.2382 51.36 74.9347 51.176 74.7094 50.9129C74.4841 50.6498 74.349 50.3215 74.3237 49.9761C74.33 49.1534 74.9229 44.5579 74.9908 44.0366C74.9971 43.9596 75.0191 43.8847 75.0555 43.8166C75.0919 43.7485 75.142 43.6886 75.2025 43.6406C75.2631 43.5926 75.3328 43.5576 75.4075 43.5377C75.4821 43.5179 75.5601 43.5136 75.6365 43.5251C75.7928 43.5612 75.9298 43.6548 76.0201 43.7874C76.1105 43.92 76.1475 44.0818 76.1238 44.2405C75.8627 46.2552 75.4719 49.4565 75.4675 50.019C75.6688 50.1888 75.9199 50.2883 76.1828 50.3025C76.4037 50.3168 76.5817 50.2596 76.6371 50.1567C76.6712 50.0882 76.7196 50.0278 76.779 49.9796C76.8384 49.9313 76.9074 49.8963 76.9814 49.8769C77.0554 49.8575 77.1327 49.8542 77.2081 49.8671C77.2836 49.8801 77.3553 49.909 77.4187 49.952C77.5523 50.0444 77.6474 50.1827 77.6859 50.3406C77.7245 50.4984 77.7038 50.6649 77.6279 50.8086C77.5216 51.0043 77.37 51.1716 77.1858 51.2967C77.0016 51.4218 76.7902 51.5009 76.5691 51.5276Z" fill="#D07069"/>
<path d="M76.1628 58.1145C75.5594 58.1118 74.9629 57.9864 74.4095 57.746C73.856 57.5056 73.3573 57.1551 72.9436 56.7159C72.8449 56.6011 72.7959 56.4518 72.8073 56.3009C72.8187 56.15 72.8896 56.0098 73.0044 55.9111C73.1192 55.8124 73.2684 55.7634 73.4194 55.7748C73.5703 55.7862 73.7105 55.8571 73.8092 55.9719C74.1143 56.2873 74.4796 56.5385 74.8833 56.7105C75.2871 56.8825 75.7212 56.9719 76.1601 56.9734C77.0996 56.9556 78.0047 56.6167 78.7248 56.013C78.8362 55.9133 78.9823 55.8613 79.1316 55.8682C79.281 55.8751 79.4217 55.9403 79.5235 56.0499C79.6252 56.1595 79.6798 56.3047 79.6756 56.4541C79.6714 56.6036 79.6087 56.7454 79.501 56.8491C78.5695 57.6467 77.3889 58.0942 76.1628 58.1145Z" fill="#D07069"/>
<path d="M76.6194 70.1465C75.4291 70.1477 74.2408 70.0472 73.0676 69.8461C72.9188 69.8181 72.7874 69.7322 72.702 69.6072C72.6166 69.4823 72.5844 69.3286 72.6124 69.1799C72.6404 69.0312 72.7263 68.8997 72.8512 68.8143C72.9762 68.7289 73.1299 68.6967 73.2786 68.7247C75.2524 69.058 77.2662 69.0797 79.2467 68.7891C79.3935 68.7674 79.5429 68.8037 79.6634 68.8903C79.7838 68.9768 79.866 69.1068 79.8923 69.2528C79.9187 69.3988 79.8872 69.5493 79.8046 69.6726C79.722 69.7958 79.5947 69.8821 79.4497 69.9131C78.5149 70.0736 77.5679 70.1517 76.6194 70.1465Z" fill="#D07069"/>
<path d="M76.3028 59.5917H75.9836C75.5534 59.5917 75.2056 59.3369 75.2056 59.0212C75.2056 58.7055 75.5534 58.4507 75.9836 58.4507H76.3037C76.7338 58.4507 77.0817 58.7055 77.0817 59.0212C77.0817 59.3369 76.7329 59.5917 76.3028 59.5917Z" fill="#EE807A"/>
<path d="M86.5825 54.9765C88.592 54.9765 90.2211 53.3474 90.2211 51.3378C90.2211 49.3283 88.592 47.6992 86.5825 47.6992C84.5729 47.6992 82.9438 49.3283 82.9438 51.3378C82.9438 53.3474 84.5729 54.9765 86.5825 54.9765Z" fill="#ED9D80"/>
<path d="M65.4609 54.9765C67.4704 54.9765 69.0995 53.3474 69.0995 51.3378C69.0995 49.3283 67.4704 47.6992 65.4609 47.6992C63.4513 47.6992 61.8223 49.3283 61.8223 51.3378C61.8223 53.3474 63.4513 54.9765 65.4609 54.9765Z" fill="#ED9D80"/>
<path d="M84.2756 39.7827C81.1297 39.7827 78.5203 41.5202 78.0303 43.7871C77.3924 43.5449 76.7234 43.3944 76.0433 43.34C75.2244 43.3268 74.4125 43.4919 73.6638 43.8237C73.1943 41.539 70.5742 39.7827 67.4113 39.7827C63.9176 39.7827 61.0757 41.9235 61.0757 44.5552C61.0757 47.1869 63.9176 49.3277 67.4113 49.3277C70.8273 49.3277 73.6128 47.2791 73.7344 44.7278C74.4346 44.3763 75.2071 44.1926 75.9906 44.1913C76.664 44.2498 77.3245 44.4114 77.9489 44.6706C78.0339 47.2469 80.8355 49.3206 84.2756 49.3206C87.7694 49.3206 90.6104 47.1798 90.6104 44.5481C90.6104 41.9164 87.7694 39.7827 84.2756 39.7827ZM67.4113 48.472C64.3897 48.472 61.9315 46.7148 61.9315 44.5552C61.9315 42.3957 64.3897 40.6385 67.4113 40.6385C70.4329 40.6385 72.8903 42.3957 72.8903 44.5552C72.8903 46.7148 70.432 48.472 67.4113 48.472ZM84.2756 48.472C81.2549 48.472 78.7967 46.7148 78.7967 44.5552C78.7967 42.3957 81.2549 40.6385 84.2756 40.6385C87.2963 40.6385 89.7546 42.3957 89.7546 44.5552C89.7546 46.7148 87.2963 48.472 84.2756 48.472Z" fill="#070925"/>
<path d="M55.8987 33.5339C55.8987 33.5339 50.3768 70.0677 64.3742 85.7337C64.3742 85.7337 51.7039 63.69 64.6738 25.552L55.8987 33.5339Z" fill="#131B4D"/>
<path d="M55.2135 42.9007C55.1965 42.9016 55.1795 42.9016 55.1625 42.9007C55.0878 42.8942 55.0151 42.873 54.9486 42.8383C54.8821 42.8037 54.823 42.7563 54.7749 42.6988C54.7267 42.6414 54.6903 42.5749 54.6679 42.5034C54.6454 42.4319 54.6372 42.3566 54.6438 42.2819C54.8267 40.1635 55.1448 38.059 55.5962 35.9811C55.6289 35.8334 55.719 35.7047 55.8466 35.6234C55.9742 35.542 56.129 35.5147 56.2767 35.5474C56.4245 35.5802 56.5532 35.6703 56.6345 35.7979C56.7158 35.9255 56.7431 36.0802 56.7104 36.228C56.2697 38.2577 55.9594 40.3136 55.7813 42.3829C55.768 42.5244 55.7024 42.6558 55.5974 42.7515C55.4924 42.8473 55.3555 42.9004 55.2135 42.9007Z" fill="#203382"/>
<path d="M93.1357 89.9965H93.1152C92.9639 89.991 92.821 89.9256 92.7179 89.8147C92.6148 89.7039 92.5599 89.5567 92.5652 89.4055C93.176 73.2762 84.6692 72.5555 84.307 72.5322C84.156 72.5232 84.0147 72.4547 83.9142 72.3418C83.8136 72.2288 83.7619 72.0805 83.7704 71.9295C83.7731 71.8544 83.791 71.7806 83.8229 71.7125C83.8548 71.6444 83.9001 71.5835 83.9562 71.5334C84.0122 71.4833 84.0778 71.445 84.149 71.4209C84.2202 71.3968 84.2955 71.3873 84.3705 71.393C84.7783 71.4144 94.3617 72.1352 93.7063 89.4484C93.7 89.5956 93.6373 89.7348 93.531 89.8369C93.4247 89.939 93.2831 89.9962 93.1357 89.9965Z" fill="#203382"/>
<path d="M94.9369 53.4946C94.835 53.4947 94.7349 53.4674 94.647 53.4157C94.5591 53.364 94.4868 53.2896 94.4374 53.2004C94.388 53.1112 94.3634 53.0104 94.3662 52.9085C94.3689 52.8066 94.399 52.7073 94.4531 52.6209C95.6063 50.7188 96.0242 48.4607 95.6282 46.2719C93.9676 44.698 89.5537 36.0222 88.7649 30.7686C88.0424 25.9558 81.8704 18.3728 76.8252 19.0926C75.7554 19.2267 74.7267 19.5884 73.8083 20.1532C72.89 20.7181 72.1032 21.473 71.5009 22.3673C71.4202 22.4881 71.2964 22.5736 71.1548 22.6062C71.0132 22.6389 70.8645 22.6163 70.739 22.543C70.6135 22.4698 70.5207 22.3514 70.4795 22.2121C70.4383 22.0727 70.4518 21.9229 70.5173 21.7932C71.2068 20.7509 72.1127 19.8693 73.1734 19.2084C74.2341 18.5475 75.4247 18.1228 76.6642 17.9632C82.3748 17.1584 89.094 25.2494 89.8926 30.5996C90.6732 35.7933 95.2195 44.4646 96.4544 45.4823C96.5078 45.5254 96.5527 45.5782 96.5868 45.6379C97.0858 46.5008 97.2941 50.2271 95.4243 53.2236C95.3731 53.3068 95.3014 53.3754 95.216 53.4228C95.1307 53.4703 95.0346 53.495 94.9369 53.4946Z" fill="#203382"/>
</g>
<g clip-path="url(#clip0_321_78998)">
<path d="M90.8286 77.3225C90.8286 77.3225 108.525 81.0604 112.274 83.5508C118.138 87.4461 136.501 131.534 138.386 156.533C140.27 181.531 119.891 207.213 119.891 207.213L106.536 193.859C106.536 193.859 120.063 164.923 118.864 154.479C117.664 144.034 108.938 126.57 108.938 126.57L90.8286 77.3225Z" fill="#F5F7FD"/>
<path d="M90.0966 77.7722C90.0966 77.7722 90.9237 126.001 89.2408 138.726C86.5018 159.443 86.3301 195.742 87.1841 215.945C88.0381 236.149 86.2451 296.665 86.2451 296.665C86.2451 296.665 119.556 299.639 134.623 292.448L118.69 187.694L110.129 118.865L109.103 90.9559L90.0966 77.7722Z" fill="#F5F7FD"/>
<path d="M69.8957 131.71C69.724 112.705 62.876 83.7684 62.876 80.6869C62.876 80.6869 63.1541 78.0543 65.2082 77.2629L67.67 75.2061C67.67 75.2061 64.6296 74.4353 62.961 75.0344C61.2923 75.6336 51.0123 81.1054 49.4134 81.7555C49.3705 81.7725 46.3104 82.554 46.2675 82.5898C43.9237 83.2694 38.13 85.5506 36.6044 86.8598C34.7748 88.4291 10.8255 140.438 11.5105 155.505C12.1955 170.572 28.4607 200.879 28.4607 200.879L36.38 194.629C33.3664 229.01 25.3335 294.667 25.3335 294.667C37.4897 299.804 71.6028 297.33 71.6028 297.33C71.6028 297.33 70.0665 150.711 69.8957 131.71ZM33.9396 153.797C34.3867 150.35 41.2016 129.939 43.5284 124.006C43.0974 132.917 41.6354 154.377 39.5938 174.151C39.4803 175.25 39.034 175.553 38.8874 177.102C35.2693 167.529 33.598 156.43 33.9396 153.797Z" fill="#F5F7FD"/>
<path d="M69.0381 142.721C68.9006 142.721 68.7679 142.671 68.6642 142.581C68.5606 142.49 68.493 142.366 68.4738 142.23C68.1716 140.066 64.1073 130.236 61.1411 123.058C58.8233 117.454 57.3952 113.977 57.2244 113.16C56.8068 111.156 61.1242 107.516 63.2301 105.878C60.4088 103.936 55.2866 100.197 55.2866 98.6609C55.2866 97.5243 57.2539 90.0378 59.3732 82.1176C59.6871 80.9453 59.8955 80.1691 59.9214 80.0537C59.9547 79.9071 60.0438 79.7791 60.1699 79.6972C60.2959 79.6152 60.449 79.5856 60.5966 79.6147C60.6698 79.629 60.7394 79.6577 60.8016 79.699C60.8637 79.7403 60.9171 79.7934 60.9586 79.8554C61.0001 79.9174 61.029 79.9869 61.0436 80.0601C61.0582 80.1333 61.0583 80.2086 61.0437 80.2818C61.0258 80.3712 60.8112 81.176 60.4794 82.4136C59.4788 86.1488 56.4321 97.5172 56.4321 98.6609C56.5591 99.5077 60.7343 102.811 64.5285 105.38C64.6038 105.431 64.6658 105.499 64.7094 105.579C64.753 105.659 64.7769 105.748 64.7791 105.839C64.7813 105.93 64.7617 106.02 64.722 106.102C64.6823 106.184 64.6236 106.255 64.5509 106.309C61.3969 108.675 58.1276 111.878 58.3458 112.927C58.5032 113.681 60.2988 118.024 62.2008 122.623C65.3592 130.259 69.2885 139.764 69.6104 142.071C69.6313 142.221 69.5918 142.373 69.5006 142.494C69.4094 142.615 69.2739 142.695 69.1239 142.716C69.0955 142.72 69.0668 142.722 69.0381 142.721Z" fill="#DADAF7"/>
<path d="M89.5865 142.207C89.5028 142.207 89.42 142.189 89.3441 142.154C89.2682 142.119 89.201 142.067 89.1473 142.003C89.0936 141.939 89.0547 141.863 89.0334 141.782C89.0121 141.702 89.0089 141.617 89.024 141.535C89.1823 140.667 91.315 136.298 94.7811 129.241C97.994 122.699 102.395 113.741 102.455 112.697C102.455 111.434 100.315 109.873 99.567 109.426C99.4365 109.349 99.3422 109.223 99.3047 109.076C99.2672 108.929 99.2897 108.773 99.3671 108.643C99.4446 108.512 99.5706 108.418 99.7176 108.38C99.8646 108.343 100.02 108.365 100.151 108.443C100.503 108.653 103.596 110.554 103.596 112.7C103.596 113.803 100.653 119.875 95.8058 129.743C93.2126 135.012 90.2849 140.983 90.1471 141.738C90.1235 141.869 90.0544 141.988 89.9519 142.074C89.8495 142.16 89.7201 142.207 89.5865 142.207Z" fill="#DADAF7"/>
<path d="M78.1137 187.665C78.0387 187.665 77.9646 187.65 77.8954 187.622C77.8262 187.593 77.7634 187.551 77.7105 187.498C77.6576 187.445 77.6157 187.382 77.5871 187.312C77.5586 187.243 77.5439 187.169 77.5441 187.094C77.5503 184.643 77.7184 127.01 78.0591 122.589C78.3945 118.228 76.7902 95.8886 76.7732 95.6633C76.767 95.5691 76.7839 95.4749 76.8224 95.3887C76.9932 95.0069 78.5528 91.6848 80.4825 92.3421C81.6951 92.7579 83.5354 94.7699 84.4985 95.8984L87.986 87.4846C88.0147 87.4154 88.0568 87.3525 88.1098 87.2995C88.1628 87.2466 88.2257 87.2046 88.295 87.1759C88.3642 87.1473 88.4384 87.1325 88.5134 87.1326C88.5883 87.1326 88.6625 87.1474 88.7318 87.1761C88.801 87.2048 88.8639 87.2469 88.9169 87.2999C88.9698 87.3529 89.0118 87.4159 89.0405 87.4851C89.0691 87.5544 89.0839 87.6286 89.0838 87.7035C89.0838 87.7785 89.069 87.8527 89.0403 87.9219L85.1942 97.2094C85.1562 97.301 85.095 97.3812 85.0166 97.442C84.9382 97.5028 84.8453 97.5421 84.747 97.556C84.6488 97.5699 84.5486 97.5579 84.4564 97.5213C84.3642 97.4847 84.2832 97.4246 84.2213 97.3471C83.1482 96.0057 81.0915 93.7568 80.1159 93.4223C79.4899 93.2032 78.4669 94.5848 77.9268 95.7276C78.0779 97.847 79.5319 118.371 79.1993 122.675C78.863 127.057 78.6913 186.497 78.6887 187.096C78.6886 187.171 78.6736 187.245 78.6446 187.315C78.6155 187.384 78.5731 187.447 78.5197 187.5C78.4662 187.553 78.4029 187.595 78.3332 187.623C78.2635 187.652 78.1889 187.666 78.1137 187.665Z" fill="#CA4563"/>
<path d="M67.1139 97.9482C67.0671 97.9479 67.0206 97.9419 66.9753 97.9303C66.8287 97.8933 66.7028 97.7999 66.6249 97.6704C66.547 97.5409 66.5234 97.3858 66.5594 97.2391C67.2829 94.3427 68.4651 90.9571 70.004 91.2477C71.3999 91.516 75.4848 94.7799 76.2896 95.4309C76.3521 95.4764 76.4048 95.5341 76.4444 95.6005C76.4839 95.667 76.5096 95.7408 76.5198 95.8175C76.5299 95.8941 76.5244 95.9721 76.5035 96.0465C76.4826 96.121 76.4468 96.1904 76.3983 96.2506C76.3498 96.3108 76.2895 96.3605 76.2211 96.3967C76.1528 96.4329 76.0778 96.4548 76.0007 96.4611C75.9236 96.4674 75.8461 96.458 75.7727 96.4334C75.6994 96.4088 75.6319 96.3695 75.5742 96.318C73.7956 94.8801 70.6559 92.5354 69.7894 92.3682C69.3262 92.5229 68.3157 94.9266 67.6692 97.5109C67.6392 97.6356 67.5682 97.7466 67.4674 97.8259C67.3666 97.9052 67.2421 97.9483 67.1139 97.9482Z" fill="#CA4563"/>
<path d="M108.674 115.325C108.539 115.325 108.409 115.277 108.306 115.19C108.203 115.103 108.135 114.982 108.113 114.849C107.455 110.825 107.067 106.762 106.95 102.687C106.95 97.5571 109.177 85.6227 109.275 85.1174C109.305 84.9708 109.392 84.8417 109.516 84.7582C109.64 84.6747 109.792 84.6433 109.939 84.6709C110.086 84.6985 110.217 84.7828 110.302 84.9056C110.388 85.0285 110.422 85.18 110.397 85.3276C110.374 85.451 108.095 97.6626 108.095 102.687C108.211 106.7 108.595 110.701 109.243 114.664C109.255 114.738 109.253 114.813 109.236 114.886C109.219 114.96 109.188 115.029 109.145 115.09C109.101 115.151 109.046 115.203 108.982 115.242C108.918 115.282 108.848 115.309 108.774 115.321C108.741 115.325 108.707 115.327 108.674 115.325Z" fill="#DADAF7"/>
<path d="M44.2128 114.47H44.1806C44.0297 114.461 43.8884 114.393 43.7878 114.28C43.6872 114.167 43.6355 114.019 43.644 113.868C43.644 113.792 44.0741 106.192 44.2852 100.865C44.4864 95.7841 40.3202 87.3622 40.2781 87.2728C40.2166 87.138 40.2099 86.9846 40.2593 86.845C40.3087 86.7053 40.4104 86.5903 40.543 86.5242C40.6755 86.4581 40.8286 86.446 40.9699 86.4906C41.1112 86.5352 41.2296 86.6328 41.3002 86.7631C41.4791 87.1208 45.6382 95.539 45.4253 100.91C45.2143 106.246 44.7877 113.856 44.7833 113.931C44.7753 114.077 44.7116 114.214 44.6055 114.314C44.4994 114.414 44.3588 114.47 44.2128 114.47Z" fill="#DADAF7"/>
<path d="M56.4475 128.588C59.911 128.588 62.7188 125.78 62.7188 122.317C62.7188 118.853 59.911 116.045 56.4475 116.045C52.984 116.045 50.1763 118.853 50.1763 122.317C50.1763 125.78 52.984 128.588 56.4475 128.588Z" fill="#ACB0CA"/>
<path d="M56.2955 121.362C56.0801 121.362 55.8727 121.28 55.7146 121.134C55.5565 120.988 55.4593 120.787 55.4424 120.572C55.3038 118.795 52.2286 77.008 67.9849 74.0105C68.0954 73.9895 68.2089 73.9903 68.319 74.0131C68.4291 74.0359 68.5336 74.0802 68.6266 74.1434C68.7196 74.2066 68.7993 74.2875 68.861 74.3814C68.9228 74.4754 68.9654 74.5806 68.9865 74.691C69.0075 74.8015 69.0067 74.915 68.9839 75.0251C68.9611 75.1352 68.9168 75.2398 68.8536 75.3328C68.7904 75.4258 68.7095 75.5054 68.6156 75.5671C68.5216 75.6289 68.4164 75.6715 68.306 75.6926C54.0394 78.4066 57.1156 120.02 57.1504 120.443C57.1679 120.669 57.0949 120.893 56.9473 121.065C56.7997 121.238 56.5897 121.344 56.3635 121.362C56.3409 121.363 56.3182 121.363 56.2955 121.362Z" fill="#0A1136"/>
<path d="M56.3135 126.497C58.5922 126.497 60.4395 124.65 60.4395 122.371C60.4395 120.093 58.5922 118.245 56.3135 118.245C54.0348 118.245 52.1875 120.093 52.1875 122.371C52.1875 124.65 54.0348 126.497 56.3135 126.497Z" fill="#04061F"/>
<path d="M56.3155 125.6C58.1162 125.6 59.5759 124.14 59.5759 122.34C59.5759 120.539 58.1162 119.079 56.3155 119.079C54.5149 119.079 53.0552 120.539 53.0552 122.34C53.0552 124.14 54.5149 125.6 56.3155 125.6Z" fill="#D8DEFF"/>
<path d="M97.713 101.743C97.6786 101.743 97.6443 101.741 97.6101 101.737C97.3847 101.71 97.1792 101.595 97.0388 101.416C96.8983 101.238 96.8343 101.011 96.8608 100.786C96.8751 100.67 98.1842 89.1328 93.9706 81.7053C92.9339 79.771 91.4029 78.1461 89.5335 76.9963C87.6641 75.8466 85.5233 75.2131 83.3293 75.1605C83.1045 75.1636 82.8869 75.0811 82.7208 74.9296C82.5547 74.7781 82.4525 74.569 82.435 74.3449C82.4297 74.2327 82.4466 74.1205 82.4847 74.0148C82.5228 73.9091 82.5813 73.812 82.657 73.729C82.7327 73.6459 82.824 73.5786 82.9256 73.5308C83.0273 73.4831 83.1375 73.4558 83.2497 73.4507C85.7645 73.4696 88.2274 74.1683 90.3776 75.4729C92.5277 76.7775 94.2849 78.6393 95.4631 80.8612C99.9566 88.7823 98.6233 100.494 98.5652 100.989C98.54 101.198 98.4393 101.389 98.2823 101.528C98.1252 101.667 97.9226 101.744 97.713 101.743Z" fill="#0A1136"/>
<path d="M104.467 118.799C104.799 128.085 104.645 136.036 103.735 137.041C102.567 137.971 101.086 138.416 99.5984 138.283C99.3714 138.284 99.1542 138.376 98.9946 138.537C98.8349 138.698 98.7459 138.917 98.7471 139.144C98.7483 139.37 98.8396 139.588 99.0009 139.747C99.1622 139.907 99.3804 139.996 99.6073 139.995H99.6163C101.533 140.129 103.428 139.519 104.906 138.29C106.504 136.793 106.497 126.966 106.184 118.63C105.615 118.722 105.042 118.778 104.467 118.799Z" fill="#ACB0CA"/>
<path d="M88.6321 136.977C89.2 138.87 92.1089 139.749 94.4258 139.922C94.6522 139.939 94.8762 139.865 95.0484 139.717C95.2206 139.569 95.327 139.359 95.3442 139.133C95.3614 138.906 95.288 138.682 95.1401 138.51C94.9922 138.338 94.7819 138.232 94.5555 138.214C92.2511 138.04 90.4814 137.179 90.2775 136.503C90.0584 135.503 90.3669 126.266 90.6826 118.922C90.1184 118.911 89.5554 118.865 88.997 118.784C88.6509 126.3 88.2941 135.849 88.6321 136.977Z" fill="#ACB0CA"/>
<path d="M105.64 108.376C105.364 105.723 103.315 100.64 97.5357 100.39C90.7896 100.116 89.8649 106.775 89.5072 109.288L89.4688 109.561C89.4563 109.643 89.2292 113.764 88.9976 118.783C89.556 118.865 90.119 118.911 90.6832 118.922C90.8844 114.228 91.09 110.305 91.1625 109.81L91.2027 109.529C91.7393 105.744 92.8785 101.898 97.4623 102.102C103.196 102.349 103.911 108.302 103.935 108.523C104.167 111.947 104.349 115.459 104.471 118.799C105.047 118.777 105.62 118.72 106.188 118.628C106.031 114.399 105.789 110.554 105.64 108.376Z" fill="#0A1136"/>
<path d="M84.1051 66.6431C84.1051 66.6431 111.243 69.5538 102.126 101.658C95.6138 124.587 83.6338 126.955 83.6338 126.955C83.6338 126.955 88.3858 125.799 90.8252 114.627C90.8252 114.627 85.9884 122.803 83.9549 123.039C83.9549 123.039 94.0355 94.4662 87.936 79.1212L80.8715 74.7546L79.397 67.5042L84.1051 66.6431Z" fill="#D4DAFA"/>
<path d="M79.0113 5.08677C74.2594 5.17619 72.0524 7.2517 71.3835 8.62256C70.441 7.74353 67.4811 7.6389 65.2706 8.5537C60.3416 10.6042 44.6344 22.3517 53.7162 45.9263L71.6903 45.3272V45.2556L84.7863 65.7022C84.7863 65.7022 100.932 61.0361 101.612 38.8628C102.293 16.6894 92.4069 4.8489 79.0113 5.08677Z" fill="#D4DAFA"/>
<path d="M83.5918 75.1184C83.4201 73.803 83.3235 70.4684 83.2806 68.3983C88.646 65.4241 92.5949 59.5454 93.9819 53.8796C92.1738 50.0787 90.73 46.115 89.6699 42.0417L88.9312 38.4782C85.4607 25.6675 77.9197 24.2886 77.9197 24.2886C77.4064 28.0443 83.7626 37.2549 83.7626 37.2549C75.5437 34.3657 73.6175 24.4782 73.6175 24.4782H73.6104C63.4975 22.9714 56.5404 39.6336 56.5404 39.6336C56.5404 39.6336 56.5261 41.5061 56.7953 44.3202C56.1926 43.9295 55.2116 43.7765 53.6172 44.2889C51.0168 45.1233 49.2194 56.3271 58.9826 55.4928L58.9557 55.2924C60.6879 60.741 63.6728 66.1278 68.7923 68.7426C68.8135 70.7253 68.5818 72.7025 68.1028 74.6266C67.5886 75.9957 65.2127 77.3227 65.2127 77.3227L76.3208 93.9554L86.9729 78.5433C86.9729 78.5433 83.852 77.0875 83.5918 75.1184Z" fill="#E9AD96"/>
<path d="M79.7144 39.3805C79.5513 39.3803 79.3916 39.3333 79.2543 39.2451C79.117 39.1569 79.0079 39.0313 78.9398 38.883C78.8717 38.7348 78.8475 38.5701 78.87 38.4085C78.8926 38.2469 78.9609 38.0952 79.067 37.9712C79.2342 37.779 80.817 36.0933 84.9958 36.24C86.1242 36.2497 87.2407 36.4711 88.2874 36.8928C88.4915 36.9865 88.6505 37.1566 88.7303 37.3665C88.81 37.5764 88.8041 37.8092 88.7137 38.0148C88.6234 38.2203 88.4559 38.3821 88.2473 38.4653C88.0388 38.5485 87.8059 38.5464 87.5989 38.4595C86.7504 38.1263 85.8474 37.9538 84.9359 37.9506C81.5932 37.8335 80.3592 39.0944 80.3476 39.1078C80.2661 39.1939 80.168 39.2626 80.0591 39.3095C79.9503 39.3564 79.833 39.3805 79.7144 39.3805Z" fill="#231213"/>
<path d="M83.9762 45.904C84.8746 45.904 85.6028 44.8787 85.6028 43.6139C85.6028 42.3491 84.8746 41.3237 83.9762 41.3237C83.0779 41.3237 82.3496 42.3491 82.3496 43.6139C82.3496 44.8787 83.0779 45.904 83.9762 45.904Z" fill="#231213"/>
<path d="M67.4123 45.904C68.3106 45.904 69.0389 44.8787 69.0389 43.6139C69.0389 42.3491 68.3106 41.3237 67.4123 41.3237C66.5139 41.3237 65.7856 42.3491 65.7856 43.6139C65.7856 44.8787 66.5139 45.904 67.4123 45.904Z" fill="#231213"/>
<path d="M71.3575 39.3893C71.2377 39.3894 71.1193 39.3643 71.0099 39.3156C70.9006 39.267 70.8026 39.1958 70.7226 39.1068C70.6787 39.0638 69.4322 37.8387 66.1343 37.9505C65.2227 37.9537 64.3197 38.1262 63.4712 38.4593C63.368 38.5067 63.2564 38.5331 63.1429 38.537C63.0294 38.5408 62.9163 38.522 62.8101 38.4817C62.704 38.4413 62.6069 38.3803 62.5246 38.302C62.4422 38.2238 62.3763 38.13 62.3306 38.026C62.2849 37.922 62.2604 37.81 62.2584 37.6964C62.2565 37.5829 62.2771 37.4701 62.3192 37.3646C62.3613 37.2591 62.4239 37.1631 62.5035 37.082C62.5831 37.001 62.678 36.9366 62.7827 36.8927C63.8294 36.471 64.946 36.2496 66.0744 36.2399C70.2531 36.103 71.8359 37.7788 72.0031 37.9711C72.1115 38.0948 72.1819 38.2472 72.2059 38.41C72.2298 38.5727 72.2063 38.7389 72.1382 38.8887C72.07 39.0384 71.9601 39.1653 71.8216 39.2541C71.6831 39.3429 71.522 39.3899 71.3575 39.3893Z" fill="#231213"/>
<path d="M76.5691 51.5276C76.2355 51.5747 75.8955 51.5441 75.5757 51.4382C75.2382 51.36 74.9347 51.176 74.7094 50.9129C74.4841 50.6498 74.349 50.3215 74.3237 49.9761C74.33 49.1534 74.9229 44.5579 74.9908 44.0366C74.9971 43.9596 75.0191 43.8847 75.0555 43.8166C75.0919 43.7485 75.142 43.6886 75.2025 43.6406C75.2631 43.5926 75.3328 43.5576 75.4075 43.5377C75.4821 43.5179 75.5601 43.5136 75.6365 43.5251C75.7928 43.5612 75.9298 43.6548 76.0201 43.7874C76.1105 43.92 76.1475 44.0818 76.1238 44.2405C75.8627 46.2552 75.4719 49.4565 75.4675 50.019C75.6688 50.1888 75.9199 50.2883 76.1828 50.3025C76.4037 50.3168 76.5817 50.2596 76.6371 50.1567C76.6712 50.0882 76.7196 50.0278 76.779 49.9796C76.8384 49.9313 76.9074 49.8963 76.9814 49.8769C77.0554 49.8575 77.1327 49.8542 77.2081 49.8671C77.2836 49.8801 77.3553 49.909 77.4187 49.952C77.5523 50.0444 77.6474 50.1827 77.6859 50.3406C77.7245 50.4984 77.7038 50.6649 77.6279 50.8086C77.5216 51.0043 77.37 51.1716 77.1858 51.2967C77.0016 51.4218 76.7902 51.5009 76.5691 51.5276Z" fill="#D07069"/>
<path d="M76.1623 58.1145C75.5589 58.1118 74.9624 57.9864 74.409 57.746C73.8555 57.5056 73.3568 57.1551 72.9431 56.7159C72.8444 56.6011 72.7954 56.4518 72.8068 56.3009C72.8182 56.15 72.8891 56.0098 73.0039 55.9111C73.1187 55.8124 73.268 55.7634 73.4189 55.7748C73.5698 55.7862 73.71 55.8571 73.8087 55.9719C74.1138 56.2873 74.4791 56.5385 74.8829 56.7105C75.2866 56.8825 75.7207 56.9719 76.1596 56.9734C77.0991 56.9556 78.0042 56.6167 78.7243 56.013C78.8357 55.9133 78.9818 55.8613 79.1312 55.8682C79.2805 55.8751 79.4212 55.9403 79.523 56.0499C79.6247 56.1595 79.6793 56.3047 79.6751 56.4541C79.6709 56.6036 79.6082 56.7454 79.5005 56.8491C78.569 57.6467 77.3884 58.0942 76.1623 58.1145Z" fill="#D07069"/>
<path d="M76.6194 70.1465C75.4291 70.1477 74.2408 70.0472 73.0676 69.8461C72.9188 69.8181 72.7874 69.7322 72.702 69.6072C72.6166 69.4823 72.5844 69.3286 72.6124 69.1799C72.6404 69.0312 72.7263 68.8997 72.8512 68.8143C72.9762 68.7289 73.1299 68.6967 73.2786 68.7247C75.2524 69.058 77.2662 69.0797 79.2467 68.7891C79.3935 68.7674 79.5429 68.8037 79.6634 68.8903C79.7839 68.9768 79.866 69.1068 79.8923 69.2528C79.9187 69.3988 79.8872 69.5493 79.8046 69.6726C79.722 69.7958 79.5947 69.8821 79.4497 69.9131C78.5149 70.0736 77.5679 70.1517 76.6194 70.1465Z" fill="#D07069"/>
<path d="M76.3028 59.5917H75.9836C75.5534 59.5917 75.2056 59.3369 75.2056 59.0212C75.2056 58.7055 75.5534 58.4507 75.9836 58.4507H76.3037C76.7338 58.4507 77.0817 58.7055 77.0817 59.0212C77.0817 59.3369 76.7329 59.5917 76.3028 59.5917Z" fill="#EE807A"/>
<path d="M86.5825 54.9765C88.592 54.9765 90.2211 53.3474 90.2211 51.3378C90.2211 49.3283 88.592 47.6992 86.5825 47.6992C84.5729 47.6992 82.9438 49.3283 82.9438 51.3378C82.9438 53.3474 84.5729 54.9765 86.5825 54.9765Z" fill="#ED9D80"/>
<path d="M65.4604 54.9765C67.47 54.9765 69.099 53.3474 69.099 51.3378C69.099 49.3283 67.47 47.6992 65.4604 47.6992C63.4508 47.6992 61.8218 49.3283 61.8218 51.3378C61.8218 53.3474 63.4508 54.9765 65.4604 54.9765Z" fill="#ED9D80"/>
<path d="M84.2751 39.7827C81.1292 39.7827 78.5199 41.5202 78.0298 43.7871C77.3919 43.5449 76.723 43.3944 76.0428 43.34C75.224 43.3268 74.412 43.4919 73.6633 43.8237C73.1938 41.539 70.5737 39.7827 67.4108 39.7827C63.9171 39.7827 61.0752 41.9235 61.0752 44.5552C61.0752 47.1869 63.9171 49.3277 67.4108 49.3277C70.8268 49.3277 73.6123 47.2791 73.7339 44.7278C74.4341 44.3763 75.2066 44.1926 75.9901 44.1913C76.6636 44.2498 77.3241 44.4114 77.9484 44.6706C78.0334 47.2469 80.835 49.3206 84.2751 49.3206C87.7689 49.3206 90.6099 47.1798 90.6099 44.5481C90.6099 41.9164 87.7689 39.7827 84.2751 39.7827ZM67.4108 48.472C64.3892 48.472 61.931 46.7148 61.931 44.5552C61.931 42.3957 64.3892 40.6385 67.4108 40.6385C70.4324 40.6385 72.8898 42.3957 72.8898 44.5552C72.8898 46.7148 70.4315 48.472 67.4108 48.472ZM84.2751 48.472C81.2544 48.472 78.7962 46.7148 78.7962 44.5552C78.7962 42.3957 81.2544 40.6385 84.2751 40.6385C87.2958 40.6385 89.7541 42.3957 89.7541 44.5552C89.7541 46.7148 87.2958 48.472 84.2751 48.472Z" fill="#070925"/>
<path d="M55.8982 33.5339C55.8982 33.5339 50.3764 70.0677 64.3738 85.7337C64.3738 85.7337 51.7034 63.69 64.6733 25.552L55.8982 33.5339Z" fill="#D4DAFA"/>
<path d="M55.213 42.9007C55.196 42.9016 55.179 42.9016 55.162 42.9007C55.0873 42.8942 55.0146 42.873 54.9481 42.8383C54.8816 42.8037 54.8226 42.7563 54.7744 42.6988C54.7262 42.6414 54.6898 42.5749 54.6674 42.5034C54.6449 42.4319 54.6367 42.3566 54.6433 42.2819C54.8263 40.1635 55.1444 38.059 55.5957 35.9811C55.6284 35.8334 55.7185 35.7047 55.8461 35.6234C55.9738 35.542 56.1285 35.5147 56.2762 35.5474C56.424 35.5802 56.5527 35.6703 56.634 35.7979C56.7153 35.9255 56.7426 36.0802 56.7099 36.228C56.2692 38.2577 55.9589 40.3136 55.7808 42.3829C55.7675 42.5244 55.7019 42.6558 55.5969 42.7515C55.4919 42.8473 55.355 42.9004 55.213 42.9007Z" fill="white"/>
<path d="M93.1353 89.9965H93.1147C92.9634 89.991 92.8206 89.9256 92.7175 89.8147C92.6143 89.7039 92.5594 89.5567 92.5647 89.4055C93.1755 73.2762 84.6687 72.5555 84.3065 72.5322C84.1555 72.5232 84.0142 72.4547 83.9137 72.3418C83.8131 72.2288 83.7614 72.0805 83.77 71.9295C83.7726 71.8544 83.7905 71.7806 83.8224 71.7125C83.8543 71.6444 83.8996 71.5835 83.9557 71.5334C84.0117 71.4833 84.0773 71.445 84.1485 71.4209C84.2197 71.3968 84.295 71.3873 84.37 71.393C84.7778 71.4144 94.3612 72.1352 93.7058 89.4484C93.6996 89.5956 93.6368 89.7348 93.5305 89.8369C93.4242 89.939 93.2826 89.9962 93.1353 89.9965Z" fill="white"/>
<path d="M94.9369 53.4948C94.835 53.4949 94.7349 53.4677 94.647 53.4159C94.5592 53.3642 94.4868 53.2899 94.4374 53.2007C94.388 53.1115 94.3634 53.0107 94.3662 52.9088C94.3689 52.8068 94.399 52.7075 94.4531 52.6212C95.6063 50.7191 96.0242 48.4609 95.6282 46.2721C93.9676 44.6983 89.5537 36.0224 88.7649 30.7688C88.0424 25.9561 81.8704 18.373 76.8252 19.0929C75.7554 19.227 74.7267 19.5886 73.8083 20.1535C72.89 20.7183 72.1032 21.4733 71.5009 22.3675C71.4202 22.4884 71.2964 22.5738 71.1548 22.6065C71.0132 22.6391 70.8645 22.6165 70.739 22.5433C70.6135 22.47 70.5207 22.3517 70.4795 22.2123C70.4383 22.073 70.4518 21.9232 70.5173 21.7934C71.2068 20.7511 72.1127 19.8695 73.1734 19.2086C74.2341 18.5477 75.4247 18.123 76.6642 17.9635C82.3748 17.1586 89.094 25.2496 89.8926 30.5998C90.6733 35.7935 95.2195 44.4649 96.4544 45.4825C96.5079 45.5257 96.5527 45.5785 96.5868 45.6381C97.0858 46.501 97.2941 50.2273 95.4243 53.2239C95.3731 53.307 95.3014 53.3756 95.216 53.4231C95.1307 53.4705 95.0346 53.4952 94.9369 53.4948Z" fill="white"/>
<path d="M64.2855 27.6623C64.2437 27.6621 64.2021 27.6577 64.1612 27.6489C64.0136 27.616 63.8851 27.5258 63.804 27.3982C63.7228 27.2706 63.6956 27.116 63.7284 26.9684C64.78 22.2352 67.8848 19.7144 69.7198 19.7144C69.7922 19.7144 69.8619 19.7144 69.9317 19.7215C70.0826 19.7303 70.2239 19.7986 70.3245 19.9114C70.4251 20.0242 70.4768 20.1724 70.4682 20.3233C70.4674 20.3992 70.4507 20.4741 70.4193 20.5431C70.3879 20.6122 70.3424 20.674 70.2858 20.7245C70.2291 20.775 70.1626 20.8131 70.0904 20.8364C70.0182 20.8597 69.9419 20.8677 69.8664 20.8599H69.7189C68.6994 20.8599 65.8468 22.6895 64.8399 27.2196C64.8111 27.3452 64.7406 27.4572 64.6399 27.5376C64.5392 27.618 64.4143 27.6619 64.2855 27.6623Z" fill="white"/>
<path d="M71.0184 22.194C70.9639 22.1938 70.9097 22.1859 70.8574 22.1708C70.7855 22.1498 70.7185 22.1149 70.6601 22.068C70.6017 22.021 70.5532 21.9631 70.5173 21.8973C70.4814 21.8316 70.4589 21.7595 70.451 21.685C70.443 21.6105 70.4499 21.5352 70.4711 21.4634C70.4872 21.4017 72.3785 15.3254 77.6393 15.4023C80.805 15.4747 83.8153 16.7893 86.02 19.0624C86.1204 19.1757 86.1718 19.3242 86.1627 19.4753C86.1537 19.6264 86.0849 19.7677 85.9717 19.8681C85.8584 19.9686 85.71 20.0199 85.5589 20.0108C85.4078 20.0018 85.2664 19.9331 85.166 19.8198C83.1644 17.8022 80.4648 16.6297 77.6241 16.5443H77.5489C73.1618 16.5443 71.6291 21.5698 71.5656 21.7845C71.5308 21.9026 71.4586 22.0063 71.36 22.0801C71.2614 22.1539 71.1416 22.1939 71.0184 22.194Z" fill="white"/>
</g>
<defs>
<linearGradient id="paint0_linear_321_78998" x1="75" y1="81.3847" x2="75" y2="169.365" gradientUnits="userSpaceOnUse">
<stop stop-color="#1C9AB7" stop-opacity="0"/>
<stop offset="1" stop-color="white"/>
</linearGradient>
<clipPath id="clip0_321_78998">
<rect width="118.269" height="119.712" fill="white" transform="translate(15.8652 0.615479)"/>
</clipPath>
</defs>
</svg>
