<svg width="15" height="22" viewBox="0 0 15 22" fill="none" xmlns="http://www.w3.org/2000/svg">
<path opacity="0.5" d="M9.37748 11.7821L9.37737 11.7823C8.87972 12.2867 8.20391 12.5698 7.49979 12.5666M9.37748 11.7821L4.99983 9.87685M9.37748 11.7821C9.87524 11.2765 10.153 10.5907 10.1497 9.87636M9.37748 11.7821L10.1497 9.87636M7.49979 12.5666C6.79567 12.5698 6.11985 12.2867 5.62221 11.7823L5.62209 11.7821C5.12439 11.2765 4.84664 10.5909 4.84983 9.87658M7.49979 12.5666C7.50003 12.5666 7.50027 12.5666 7.5005 12.5666L7.49979 12.4166L7.49907 12.5666C7.49931 12.5666 7.49955 12.5666 7.49979 12.5666ZM4.84983 9.87658C4.84983 9.87644 4.84983 9.8763 4.84983 9.87616L4.99983 9.87685M4.84983 9.87658V9.87685H4.99983M4.84983 9.87658V4.23324C4.84983 2.75046 6.03453 1.54345 7.49979 1.54345C8.96505 1.54345 10.1497 2.75046 10.1497 4.23324L10.1497 9.87616L9.99974 9.87685M4.99983 9.87685V4.23324C4.99983 2.83106 6.1196 1.69345 7.49979 1.69345C8.87998 1.69345 9.99974 2.83106 9.99974 4.23324V9.87685M9.99974 9.87685H10.1497V9.87636M9.99974 9.87685L10.1497 9.87636M10.3388 12.7653L10.3387 12.7654C9.5854 13.5307 8.56445 13.9598 7.49979 13.9598C6.43508 13.9598 5.4142 13.5307 4.66093 12.7654L4.66086 12.7653C3.90655 12 3.48322 10.9606 3.48322 9.8768V4.23318C3.48322 2.77341 4.24947 1.42516 5.49235 0.69691L5.49243 0.696865C6.73513 -0.0322885 8.26452 -0.0322877 9.5072 0.696864L9.50728 0.696911C10.7502 1.42513 11.5164 2.77335 11.5164 4.23318V9.8768C11.5164 10.9607 11.0931 12 10.3388 12.7653ZM14.8497 8.72619V8.74878V9.87671C14.8476 11.7136 14.1795 13.4848 12.9747 14.8519C11.7688 16.219 10.1111 17.0868 8.31618 17.291L8.18313 17.3061V17.44V20.3068V20.4568H8.33313H9.72164C10.0969 20.4568 10.405 20.7672 10.405 21.1534C10.405 21.5406 10.097 21.85 9.72164 21.85H5.27799C4.90264 21.85 4.59467 21.5406 4.59467 21.1534C4.59467 20.7672 4.90276 20.4568 5.27799 20.4568H6.6665H6.8165V20.3068V17.44V17.3059L6.68321 17.291C4.88934 17.0899 3.2317 16.2242 2.02597 14.8581C0.821125 13.493 0.15204 11.7228 0.15 9.8882L0.15 8.74864C0.15 8.36149 0.457969 8.05204 0.833319 8.05204C1.20867 8.05204 1.51664 8.36149 1.51664 8.74864V9.87674C1.51664 9.87709 1.51664 9.87744 1.51664 9.8778C1.51701 12.0473 2.65589 14.0532 4.50753 15.1386C6.35967 16.2242 8.64032 16.2242 10.4925 15.1385C12.3444 14.053 13.4834 12.0466 13.4834 9.87674V8.74864C13.4834 8.36148 13.7913 8.05204 14.1667 8.05204C14.5347 8.05204 14.838 8.34959 14.8497 8.72619Z" fill="white" stroke="#CCCCCC" stroke-width="0.3"/>
</svg>
