<svg width="34" height="34" viewBox="0 0 34 34" fill="none" xmlns="http://www.w3.org/2000/svg">
<circle cx="17" cy="17" r="17" fill="#1C9AB7"/>
<path d="M18.9375 20.0234C18.9375 19.8203 18.9062 19.638 18.8438 19.4766C18.7865 19.3099 18.6771 19.1589 18.5156 19.0234C18.3542 18.8828 18.1276 18.7448 17.8359 18.6094C17.5443 18.474 17.1667 18.3333 16.7031 18.1875C16.1875 18.0208 15.6979 17.8333 15.2344 17.625C14.776 17.4167 14.3698 17.1745 14.0156 16.8984C13.6667 16.6172 13.3906 16.2917 13.1875 15.9219C12.9896 15.5521 12.8906 15.1224 12.8906 14.6328C12.8906 14.1589 12.9948 13.7292 13.2031 13.3438C13.4115 12.9531 13.7031 12.6198 14.0781 12.3438C14.4531 12.0625 14.8958 11.8464 15.4062 11.6953C15.9219 11.5443 16.487 11.4688 17.1016 11.4688C17.9401 11.4688 18.6719 11.6198 19.2969 11.9219C19.9219 12.224 20.4062 12.638 20.75 13.1641C21.099 13.6901 21.2734 14.2917 21.2734 14.9688H18.9453C18.9453 14.6354 18.875 14.3438 18.7344 14.0938C18.599 13.8385 18.3906 13.638 18.1094 13.4922C17.8333 13.3464 17.4844 13.2734 17.0625 13.2734C16.6562 13.2734 16.3177 13.3359 16.0469 13.4609C15.776 13.5807 15.5729 13.7448 15.4375 13.9531C15.3021 14.1562 15.2344 14.3854 15.2344 14.6406C15.2344 14.8333 15.2812 15.0078 15.375 15.1641C15.474 15.3203 15.6198 15.4661 15.8125 15.6016C16.0052 15.737 16.2422 15.8646 16.5234 15.9844C16.8047 16.1042 17.1302 16.2214 17.5 16.3359C18.1198 16.5234 18.6641 16.7344 19.1328 16.9688C19.6068 17.2031 20.0026 17.4661 20.3203 17.7578C20.638 18.0495 20.8776 18.3802 21.0391 18.75C21.2005 19.1198 21.2812 19.5391 21.2812 20.0078C21.2812 20.5026 21.1849 20.9453 20.9922 21.3359C20.7995 21.7266 20.5208 22.0573 20.1562 22.3281C19.7917 22.599 19.3568 22.8047 18.8516 22.9453C18.3464 23.0859 17.7812 23.1562 17.1562 23.1562C16.5938 23.1562 16.0391 23.0833 15.4922 22.9375C14.9453 22.7865 14.4479 22.5599 14 22.2578C13.5573 21.9557 13.2031 21.5703 12.9375 21.1016C12.6719 20.6328 12.5391 20.0781 12.5391 19.4375H14.8906C14.8906 19.7917 14.9453 20.0911 15.0547 20.3359C15.1641 20.5807 15.3177 20.7786 15.5156 20.9297C15.7188 21.0807 15.9583 21.1901 16.2344 21.2578C16.5156 21.3255 16.8229 21.3594 17.1562 21.3594C17.5625 21.3594 17.8958 21.3021 18.1562 21.1875C18.4219 21.0729 18.6172 20.9141 18.7422 20.7109C18.8724 20.5078 18.9375 20.2786 18.9375 20.0234Z" fill="white"/>
</svg>
